<svg xmlns="http://www.w3.org/2000/svg" viewBox="0 0 55.19 55.18"><defs><style>.a{fill:#141419;}</style></defs><path class="a" d="M47.71,8.71h-.08a26.5,26.5,0,0,0-5.84,6.09,46.57,46.57,0,0,0-3.16,5.11c-.26.47-.53,1-.8,1.48q-1.44,2.7-3.09,6.14-1.8-3.16-3.06-5.74t-2.26-5.14A38.81,38.81,0,0,1,28,12.19a19.75,19.75,0,0,1-.58-3.5q-4.92,2.85-7.34,4.6.87,4.38,1.85,7.72a51,51,0,0,0,1.8,5.31,16.91,16.91,0,0,0,1.8,3.48l3.2,4.73c-1.18.76-2.25,1.4-3.22,1.92a22.53,22.53,0,0,1-2.38,1.14,13.4,13.4,0,0,1-5,.84,18.42,18.42,0,0,1-7.46-1.7Q6.8,35,2.08,28.74C1.43,29.8.84,30.76.3,31.62a26.73,26.73,0,0,1-.3-4A27.59,27.59,0,0,1,47.71,8.71Z"/><path class="a" d="M55.19,27.59A27.6,27.6,0,0,1,4.82,43.17,16,16,0,0,0,6.69,44a17.77,17.77,0,0,0,5.84,1q6.35,0,14.21-5.45c1.18-.81,2.39-1.73,3.62-2.73q3.15,4.55,8.09,4.55a14.83,14.83,0,0,0,6.88-1.7,19.54,19.54,0,0,0,3.43-2.24c-.91.06-1.58.09-2,.09a9.1,9.1,0,0,1-2.47-.35,10.75,10.75,0,0,1-2.79-1.25,21.49,21.49,0,0,1-5.68-6.15L39,24.29l1.42-2.46a81,81,0,0,1,5.23-8,15.61,15.61,0,0,1,5.86,5.63l1.34-3A27.39,27.39,0,0,1,55.19,27.59Z"/></svg>