<svg xmlns="http://www.w3.org/2000/svg" xmlns:xlink="http://www.w3.org/1999/xlink" viewBox="0 0 316.76 93.82"><defs><style>.cls-1{fill:none;}.cls-2{fill:#fff;}.cls-3{fill:#c00b1d;}.cls-4{isolation:isolate;}.cls-5{clip-path:url(#clip-path);}.cls-6{fill:#858585;}.cls-7{fill:#8a8a8a;}.cls-8{clip-path:url(#clip-path-2);}.cls-9{fill:#001b40;}.cls-10{clip-path:url(#clip-path-3);}.cls-11{clip-path:url(#clip-path-4);}.cls-12{clip-path:url(#clip-path-5);}.cls-13{clip-path:url(#clip-path-6);}.cls-14{clip-path:url(#clip-path-7);}.cls-15{clip-path:url(#clip-path-8);}.cls-16{clip-path:url(#clip-path-9);}.cls-17{clip-path:url(#clip-path-10);}.cls-18{clip-path:url(#clip-path-11);}.cls-19{fill:#002f72;}.cls-20{fill:#ebebeb;}.cls-21{clip-path:url(#clip-path-12);}.cls-22{clip-path:url(#clip-path-13);}.cls-23{fill:#001c43;}.cls-24{clip-path:url(#clip-path-14);}.cls-25{clip-path:url(#clip-path-15);}.cls-26{clip-path:url(#clip-path-16);}.cls-27{fill:#001d45;}.cls-28{clip-path:url(#clip-path-17);}.cls-29{fill:#8f8f8f;}.cls-30{clip-path:url(#clip-path-18);}.cls-31{clip-path:url(#clip-path-19);}.cls-32{clip-path:url(#clip-path-20);}.cls-33{fill:#64060f;}.cls-34{clip-path:url(#clip-path-21);}.cls-35{clip-path:url(#clip-path-22);}.cls-36{clip-path:url(#clip-path-23);}.cls-37{clip-path:url(#clip-path-24);}.cls-38{clip-path:url(#clip-path-25);}.cls-39{clip-path:url(#clip-path-26);}.cls-40{clip-path:url(#clip-path-27);}.cls-41{clip-path:url(#clip-path-28);}.cls-42{clip-path:url(#clip-path-29);}.cls-43{clip-path:url(#clip-path-30);}.cls-44{clip-path:url(#clip-path-31);}.cls-45{clip-path:url(#clip-path-32);}.cls-46{clip-path:url(#clip-path-33);}.cls-47{clip-path:url(#clip-path-34);}.cls-48{clip-path:url(#clip-path-35);}.cls-49{clip-path:url(#clip-path-36);}.cls-50{clip-path:url(#clip-path-37);}.cls-51{clip-path:url(#clip-path-38);}.cls-52{fill:#680610;}.cls-53{clip-path:url(#clip-path-39);}.cls-54{clip-path:url(#clip-path-40);}.cls-55{clip-path:url(#clip-path-41);}.cls-56{fill:#806300;}.cls-57{clip-path:url(#clip-path-42);}.cls-58{clip-path:url(#clip-path-43);}.cls-59{clip-path:url(#clip-path-44);}.cls-60{fill:#b10a1b;}.cls-61{clip-path:url(#clip-path-45);}.cls-62{clip-path:url(#clip-path-46);}.cls-63{fill:#6f0611;}.cls-64{fill:#730711;}.cls-65{clip-path:url(#clip-path-47);}.cls-66{clip-path:url(#clip-path-48);}.cls-67{fill:#947200;}.cls-68{clip-path:url(#clip-path-49);}.cls-69{clip-path:url(#clip-path-50);}.cls-70{fill:#856700;}.cls-71{fill:#806200;}.cls-72{clip-path:url(#clip-path-51);}.cls-73{fill:#997600;}.cls-74{fill:#e4af00;}.cls-75{fill:#63060f;}.cls-76{clip-path:url(#clip-path-52);}.cls-77{clip-path:url(#clip-path-53);}.cls-78{fill:#6c0610;}.cls-79{fill:#f7be00;}</style><clipPath id="clip-path" transform="translate(-2.13 -42.29)"><path class="cls-1" d="M314.39,96.85v7.5a2.81,2.81,0,0,0-.33-.13c-1.74-.62-3.26-1.15-4.77-1.64-.83-.26-1.65-.53-2.48-.77l-.81-.24-1.47-.44-1.12-.32-.83-.23a165,165,0,0,0-43.71-5.79,200.21,200.21,0,0,0-32.18,2.68l-3.85.67v-7.5l3.85-.67a200.21,200.21,0,0,1,32.18-2.68,165,165,0,0,1,43.71,5.79l.83.23,1.12.32,1.47.44.81.24c.83.24,1.65.51,2.48.77,1.51.49,3,1,4.77,1.64A2.81,2.81,0,0,1,314.39,96.85Z"/></clipPath><clipPath id="clip-path-2" transform="translate(-2.13 -42.29)"><path class="cls-1" d="M258.68,99.29a184.81,184.81,0,0,0-21.59,1.3v-7.5a184.81,184.81,0,0,1,21.59-1.3h1.67v7.5Z"/></clipPath><clipPath id="clip-path-3" transform="translate(-2.13 -42.29)"><path class="cls-1" d="M260.35,99.3V91.8a161.86,161.86,0,0,1,20.39,1.46v7.5A161.86,161.86,0,0,0,260.35,99.3Z"/></clipPath><clipPath id="clip-path-4" transform="translate(-2.13 -42.29)"><path class="cls-1" d="M282.82,93.55v7.5l-2.08-.29v-7.5Z"/></clipPath><clipPath id="clip-path-5" transform="translate(-2.13 -42.29)"><path class="cls-1" d="M283.87,93.71v7.5l-1.05-.16v-7.5Z"/></clipPath><clipPath id="clip-path-6" transform="translate(-2.13 -42.29)"><path class="cls-1" d="M285.86,94v7.5c-.67-.12-1.34-.23-2-.32v-7.5C284.52,93.8,285.19,93.91,285.86,94Z"/></clipPath><clipPath id="clip-path-7" transform="translate(-2.13 -42.29)"><path class="cls-1" d="M287.44,101.8l-1.58-.27V94l1.58.27h0v7.5Z"/></clipPath><clipPath id="clip-path-8" transform="translate(-2.13 -42.29)"><path class="cls-1" d="M201.78,102.44v-7.5a5.21,5.21,0,0,0,0,.55V103A5.21,5.21,0,0,1,201.78,102.44Z"/></clipPath><clipPath id="clip-path-9" transform="translate(-2.13 -42.29)"><path class="cls-1" d="M222.84,90.64v7.5c-7.43,1.34-14.47,3-21,4.85v-7.5C208.37,93.66,215.41,92,222.84,90.64Z"/></clipPath><clipPath id="clip-path-10" transform="translate(-2.13 -42.29)"><path class="cls-1" d="M315.18,97.14v7.5l-.79-.29v-7.5Z"/></clipPath><clipPath id="clip-path-11" transform="translate(-2.13 -42.29)"><path class="cls-1" d="M289.52,102.18c-.72-.14-1.4-.27-2.08-.38V94.3c.68.11,1.36.24,2.08.38,1.12.22,2.25.44,3.37.68,1.67.36,3.33.75,5,1.17s3.27.86,4.91,1.34l2.49.74c.89.27,1.77.55,2.66.85q.94.3,1.89.63l1.5.53v7.5l-1.5-.53q-.94-.33-1.89-.63c-.89-.3-1.77-.58-2.66-.85l-2.49-.74c-1.64-.48-3.27-.92-4.91-1.34s-3.35-.81-5-1.17C291.77,102.62,290.64,102.4,289.52,102.18Z"/></clipPath><clipPath id="clip-path-12" transform="translate(-2.13 -42.29)"><path class="cls-1" d="M201.64,103.19v-7.5a8.32,8.32,0,0,0,.33,2.24,8.06,8.06,0,0,0,.9,2.09v7.5a8.06,8.06,0,0,1-.9-2.09A8.32,8.32,0,0,1,201.64,103.19Z"/></clipPath><clipPath id="clip-path-13" transform="translate(-2.13 -42.29)"><path class="cls-1" d="M237.09,93.09v7.5c-4.35.48-8.6,1.11-12.73,1.85a208.82,208.82,0,0,0-21.49,5.08V100a208.82,208.82,0,0,1,21.49-5.08C228.49,94.2,232.74,93.57,237.09,93.09Z"/></clipPath><clipPath id="clip-path-14" transform="translate(-2.13 -42.29)"><path class="cls-1" d="M237.09,93.09v7.5c-4.35.5-8.6,1.15-12.74,1.91-7.59,1.38-14.8,3.11-21.48,5V100c6.68-1.91,13.89-3.64,21.48-5C228.49,94.24,232.74,93.59,237.09,93.09Z"/></clipPath><clipPath id="clip-path-15" transform="translate(-2.13 -42.29)"><path class="cls-1" d="M312.81,101.13v7.5l-1.45-.51v-7.5Z"/></clipPath><clipPath id="clip-path-16" transform="translate(-2.13 -42.29)"><path class="cls-1" d="M313.59,101.43v7.5l-.78-.3v-7.5Z"/></clipPath><clipPath id="clip-path-17" transform="translate(-2.13 -42.29)"><path class="cls-1" d="M314.17,101.66v7.5l-.58-.23v-7.5Z"/></clipPath><clipPath id="clip-path-18" transform="translate(-2.13 -42.29)"><path class="cls-1" d="M303.83,102.91v7.5A152,152,0,0,0,259,103.87a189.21,189.21,0,0,0-35.76,3.55c-5.76,1.12-11.27,2.44-16.5,3.86v-7.5c5.23-1.42,10.74-2.74,16.5-3.86A189.21,189.21,0,0,1,259,96.37,152,152,0,0,1,303.83,102.91Z"/></clipPath><clipPath id="clip-path-19" transform="translate(-2.13 -42.29)"><path class="cls-1" d="M206.72,103.78v7.5a10.16,10.16,0,0,1-3.85-3.76V100A10.16,10.16,0,0,0,206.72,103.78Z"/></clipPath><clipPath id="clip-path-20" transform="translate(-2.13 -42.29)"><path class="cls-1" d="M264.26,112.44v7.5H264c-.82,0-1.63,0-2.44,0v-7.5c.81,0,1.62,0,2.44,0Z"/></clipPath><clipPath id="clip-path-21" transform="translate(-2.13 -42.29)"><path class="cls-1" d="M261.51,112.39v7.5h-1.82c-1.21,0-2.41,0-3.61,0s-2.39.06-3.59.11v-7.5c1.2-.05,2.39-.08,3.59-.11s2.4,0,3.61,0Z"/></clipPath><clipPath id="clip-path-22" transform="translate(-2.13 -42.29)"><path class="cls-1" d="M269.44,112.67v7.5c-1.74-.11-3.46-.18-5.18-.23v-7.5C266,112.49,267.7,112.56,269.44,112.67Z"/></clipPath><clipPath id="clip-path-23" transform="translate(-2.13 -42.29)"><path class="cls-1" d="M252.49,112.54V120c-1.18,0-2.35.11-3.53.19v-7.5C250.14,112.65,251.31,112.59,252.49,112.54Z"/></clipPath><clipPath id="clip-path-24" transform="translate(-2.13 -42.29)"><path class="cls-1" d="M271.89,112.82v7.5c-.81-.06-1.63-.11-2.45-.15v-7.5C270.26,112.71,271.08,112.76,271.89,112.82Z"/></clipPath><clipPath id="clip-path-25" transform="translate(-2.13 -42.29)"><path class="cls-1" d="M249,120.23c-1,.06-2,.13-3,.21v-7.5c1-.08,2-.15,3-.21Z"/></clipPath><clipPath id="clip-path-26" transform="translate(-2.13 -42.29)"><path class="cls-1" d="M246,120.44l-.55,0V113l.55,0h0v7.5Z"/></clipPath><clipPath id="clip-path-27" transform="translate(-2.13 -42.29)"><path class="cls-1" d="M245.45,120.49l-.59,0V113l.59,0Z"/></clipPath><clipPath id="clip-path-28" transform="translate(-2.13 -42.29)"><path class="cls-1" d="M275.17,113.1v7.5c-1.09-.11-2.19-.21-3.28-.28v-7.5C273,112.89,274.08,113,275.17,113.1Z"/></clipPath><clipPath id="clip-path-29" transform="translate(-2.13 -42.29)"><path class="cls-1" d="M244.86,120.53l-2.91.28v-7.5l2.91-.28v7.5Z"/></clipPath><clipPath id="clip-path-30" transform="translate(-2.13 -42.29)"><path class="cls-1" d="M242,113.31v7.5c-1.15.11-2.29.24-3.42.38v-7.5C239.66,113.55,240.8,113.42,242,113.31Z"/></clipPath><clipPath id="clip-path-31" transform="translate(-2.13 -42.29)"><path class="cls-1" d="M280.47,113.7v7.5l-.36-.06c-1.64-.21-3.3-.39-4.94-.54v-7.5c1.64.15,3.3.33,4.94.54Z"/></clipPath><clipPath id="clip-path-32" transform="translate(-2.13 -42.29)"><path class="cls-1" d="M283.45,114.11v7.5c-1-.16-2-.3-3-.41v-7.5C281.46,113.81,282.45,114,283.45,114.11Z"/></clipPath><clipPath id="clip-path-33" transform="translate(-2.13 -42.29)"><path class="cls-1" d="M285.7,114.47V122c-.75-.14-1.49-.25-2.25-.36v-7.5C284.21,114.22,285,114.33,285.7,114.47Z"/></clipPath><clipPath id="clip-path-34" transform="translate(-2.13 -42.29)"><path class="cls-1" d="M286.84,114.65v7.5q-.57-.11-1.14-.18v-7.5Q286.27,114.54,286.84,114.65Z"/></clipPath><clipPath id="clip-path-35" transform="translate(-2.13 -42.29)"><path class="cls-1" d="M293.79,116v7.5c-.81-.19-1.61-.35-2.4-.52l-1-.21c-1.18-.23-2.35-.45-3.51-.65v-7.5c1.16.2,2.33.42,3.51.65l1,.21C292.18,115.68,293,115.84,293.79,116Z"/></clipPath><clipPath id="clip-path-36" transform="translate(-2.13 -42.29)"><path class="cls-1" d="M296.62,116.67v7.5c-.94-.22-1.88-.44-2.83-.64V116C294.74,116.23,295.68,116.45,296.62,116.67Z"/></clipPath><clipPath id="clip-path-37" transform="translate(-2.13 -42.29)"><path class="cls-1" d="M301.65,118v7.5l-2.15-.59-2.88-.74v-7.5l2.88.74Z"/></clipPath><clipPath id="clip-path-38" transform="translate(-2.13 -42.29)"><path class="cls-1" d="M213,125.9v-7.5a206.55,206.55,0,0,1,25.5-4.71v7.5A206.55,206.55,0,0,0,213,125.9Z"/></clipPath><clipPath id="clip-path-39" transform="translate(-2.13 -42.29)"><path class="cls-1" d="M211.13,126.37v-7.5l1.52-.38.38-.09v7.5l-.38.09Z"/></clipPath><clipPath id="clip-path-40" transform="translate(-2.13 -42.29)"><path class="cls-1" d="M306,119.28v7.5c-1.43-.45-2.86-.88-4.3-1.28V118C303.09,118.4,304.52,118.83,306,119.28Z"/></clipPath><clipPath id="clip-path-41" transform="translate(-2.13 -42.29)"><path class="cls-1" d="M288.76,119.81v7.5l-1.17-.22c-1.46-.26-2.92-.5-4.37-.71a159.05,159.05,0,0,0-22.9-1.66H260v-7.5h.28a159.05,159.05,0,0,1,22.9,1.66c1.45.21,2.91.45,4.37.71Z"/></clipPath><clipPath id="clip-path-42" transform="translate(-2.13 -42.29)"><path class="cls-1" d="M206.38,127.65v-7.5c1.55-.44,3.14-.87,4.75-1.28v7.5C209.52,126.78,207.93,127.21,206.38,127.65Z"/></clipPath><clipPath id="clip-path-43" transform="translate(-2.13 -42.29)"><path class="cls-1" d="M206.38,127.65l-1.55.44v-7.5l1.55-.44v7.5Z"/></clipPath><clipPath id="clip-path-44" transform="translate(-2.13 -42.29)"><path class="cls-1" d="M311,121v7.5l-2.88-1c-.71-.25-1.43-.47-2.15-.71v-7.5c.72.24,1.44.46,2.15.71Z"/></clipPath><clipPath id="clip-path-45" transform="translate(-2.13 -42.29)"><path class="cls-1" d="M311.43,121.15v7.5l-.45-.17V121Z"/></clipPath><clipPath id="clip-path-46" transform="translate(-2.13 -42.29)"><path class="cls-1" d="M311.49,120.28v7.5c0,.13,0,.25,0,.38a3.87,3.87,0,0,1-.05.49v-7.5a3.87,3.87,0,0,0,.05-.49C311.49,120.53,311.49,120.41,311.49,120.28Z"/></clipPath><clipPath id="clip-path-47" transform="translate(-2.13 -42.29)"><path class="cls-1" d="M303.11,123.23v7.5l-2-.57c-.78-.22-1.57-.42-2.36-.63l-2-.51c-.58-.15-1.17-.29-1.75-.42l-1.76-.39c-.88-.19-1.75-.38-2.62-.55l-1.85-.35v-7.5l1.85.35c.87.17,1.74.36,2.62.55l1.76.39c.58.13,1.17.27,1.75.42l2,.51c.79.21,1.58.41,2.36.63Z"/></clipPath><clipPath id="clip-path-48" transform="translate(-2.13 -42.29)"><path class="cls-1" d="M311.43,121.15v7.5a5.78,5.78,0,0,1-.19,1.2,10.87,10.87,0,0,1-.34,1.09c0,.12-.08.22-.12.32v-7.5c0-.1.08-.2.12-.32a10.87,10.87,0,0,0,.34-1.09A5.78,5.78,0,0,0,311.43,121.15Z"/></clipPath><clipPath id="clip-path-49" transform="translate(-2.13 -42.29)"><path class="cls-1" d="M306.75,124.37v7.5c-1.21-.4-2.43-.78-3.64-1.14v-7.5C304.32,123.59,305.54,124,306.75,124.37Z"/></clipPath><clipPath id="clip-path-50" transform="translate(-2.13 -42.29)"><path class="cls-1" d="M260,117.22v7.5h-.27a191,191,0,0,0-38.55,4.16q-3.28.68-6.45,1.44l-1.18.28c-.58.14-1.15.28-1.7.43l-2.16.56-2,.54c-.7.2-1.39.38-2.05.59v-7.5c.66-.21,1.35-.39,2.05-.59l2-.54,2.16-.56c.55-.15,1.12-.29,1.7-.43l1.18-.28q3.16-.76,6.45-1.44a191,191,0,0,1,38.55-4.16Z"/></clipPath><clipPath id="clip-path-51" transform="translate(-2.13 -42.29)"><path class="cls-1" d="M309.86,125.4v7.5l-1.16-.4c-.69-.22-1.32-.44-1.95-.63v-7.5c.63.19,1.26.41,1.95.63Z"/></clipPath><clipPath id="clip-path-52" transform="translate(-2.13 -42.29)"><path class="cls-1" d="M306.25,128.61v7.5a139.26,139.26,0,0,0-16.6-4.45,143.54,143.54,0,0,0-28.71-2.84,187.61,187.61,0,0,0-46.44,6.32v-7.5a187.61,187.61,0,0,1,46.44-6.32,143.54,143.54,0,0,1,28.71,2.84A139.26,139.26,0,0,1,306.25,128.61Z"/></clipPath><clipPath id="clip-path-53" transform="translate(-2.13 -42.29)"><path class="cls-1" d="M309.86,125.41v7.5a9.92,9.92,0,0,1-1.28,1.48,11.15,11.15,0,0,1-2.33,1.72v-7.5a11.15,11.15,0,0,0,2.33-1.72A9.92,9.92,0,0,0,309.86,125.41Z"/></clipPath></defs><g id="Layer_2" data-name="Layer 2"><g id="Assets"><g id="Logo"><line class="cls-1" x1="3.14" y1="83.06" x2="3.14" y2="83.05"/><line class="cls-1" x1="306.49" y1="76.85" x2="305.84" y2="81.96"/><path class="cls-2" d="M300.32,95.46c-.86-.17-1.73-.33-2.59-.48l0-.12c2,.39,4,.82,6.08,1.31l1.27.32C303.5,96.11,301.9,95.76,300.32,95.46Z" transform="translate(-2.13 -42.29)"/><path class="cls-3" d="M295,118.92c-27-4.14-52.54.58-73.72,7.72l-1.67.57,1.66-.59C242.5,119.4,268,114.68,295,118.92Z" transform="translate(-2.13 -42.29)"/><path class="cls-2" d="M33.89,64.79l4.45,6.67-.61.42a1.78,1.78,0,0,0-1.07-.61,8.49,8.49,0,0,0-2.37,1.13,32.82,32.82,0,0,1-6.79,3.13,23.35,23.35,0,0,1-6.55.81q-7.56,0-12.42-3.58A15,15,0,0,1,4,67.58a16.32,16.32,0,0,1-1.9-7.81,15.82,15.82,0,0,1,3.4-10.1Q10.65,43.24,21,43.23a23.38,23.38,0,0,1,6.51.79,33.9,33.9,0,0,1,6.8,3.14,8.46,8.46,0,0,0,2.37,1.11,1.83,1.83,0,0,0,1.07-.61l.61.42-4.45,6.68-.63-.42a5.3,5.3,0,0,0,0-.63,1.78,1.78,0,0,0-.58-1.27A9.75,9.75,0,0,0,30.63,51a17.59,17.59,0,0,0-8.79-2.34A13.18,13.18,0,0,0,13.1,51.4a10.42,10.42,0,0,0-3.84,8.39,10.4,10.4,0,0,0,3.84,8.38,13.18,13.18,0,0,0,8.74,2.74,17.5,17.5,0,0,0,8.79-2.35,9.75,9.75,0,0,0,2.09-1.44,1.8,1.8,0,0,0,.58-1.28,4.88,4.88,0,0,0,0-.61Z" transform="translate(-2.13 -42.29)"/><path class="cls-2" d="M59.82,43.23q8.38,0,13.28,4.52a16.62,16.62,0,0,1,2.69,20.81q-4.85,7.78-15.92,7.78-8.29,0-13.2-4.52a15.82,15.82,0,0,1-4-5.79,16.56,16.56,0,0,1-1.2-6.26A16.35,16.35,0,0,1,44,51Q48.66,43.38,59.82,43.23Zm0,5.43a11.07,11.07,0,0,0-7.63,2.72,10.7,10.7,0,0,0-3.61,8.41,10.7,10.7,0,0,0,3.61,8.4,11.12,11.12,0,0,0,7.67,2.72,11,11,0,0,0,7.65-2.72,10.63,10.63,0,0,0,2.77-4,11.18,11.18,0,0,0,.85-4.3,10.71,10.71,0,0,0-3.62-8.55A11.54,11.54,0,0,0,59.85,48.66Z" transform="translate(-2.13 -42.29)"/><path class="cls-2" d="M113.06,46.5,109.24,54l-.65-.37c0-.16,0-.28,0-.38,0-.53-.45-1.1-1.36-1.71a16.7,16.7,0,0,0-9.8-2.91,14.57,14.57,0,0,0-4.38.61,5.28,5.28,0,0,0-2.24,1.41,2.94,2.94,0,0,0-.85,2c0,1.21.72,2,2.18,2.46a33.63,33.63,0,0,0,4.82.71l3.68.37a29.42,29.42,0,0,1,5.31,1,12.74,12.74,0,0,1,3.6,1.71,8.11,8.11,0,0,1,2.52,3,8.88,8.88,0,0,1,.93,4,9.14,9.14,0,0,1-2.18,6,11.83,11.83,0,0,1-6.12,3.54,24.37,24.37,0,0,1-6.63.86,28.1,28.1,0,0,1-12.54-3A6.61,6.61,0,0,0,84,72.69a1.92,1.92,0,0,0-1,.51l-.68-.35L85.8,65l.68.33v.3a2.6,2.6,0,0,0,1,2,12.86,12.86,0,0,0,4.71,2.34,20.43,20.43,0,0,0,6,1,12.13,12.13,0,0,0,5.32-1.06,5.21,5.21,0,0,0,2-1.55,3.36,3.36,0,0,0,.72-2A2.33,2.33,0,0,0,104.53,64a22.54,22.54,0,0,0-4.83-.87l-3.61-.37A48.32,48.32,0,0,1,91,62.05,13.42,13.42,0,0,1,88,61a7.76,7.76,0,0,1-3.35-3.17,8.56,8.56,0,0,1-1.1-4.36,8.87,8.87,0,0,1,2.79-6.71q3.65-3.49,11-3.49a25.17,25.17,0,0,1,5.71.62,43,43,0,0,1,6.61,2.3,7.21,7.21,0,0,0,1.67.54,1.94,1.94,0,0,0,1.15-.54Z" transform="translate(-2.13 -42.29)"/><path class="cls-2" d="M135.56,49.06V73.32a1.61,1.61,0,0,0,.33,1.1,2.36,2.36,0,0,0,1.17.61v.75h-10V75a2.36,2.36,0,0,0,1.17-.61,1.61,1.61,0,0,0,.33-1.1V49.06h-9.94a1.64,1.64,0,0,0-1.08.32,2.43,2.43,0,0,0-.61,1.18h-.75V42.29H117a2.62,2.62,0,0,0,.62,1.18,1.61,1.61,0,0,0,1.07.32h26.84a1.68,1.68,0,0,0,1.1-.32,2.43,2.43,0,0,0,.61-1.18h.75v8.27h-.75a2.43,2.43,0,0,0-.61-1.18,1.68,1.68,0,0,0-1.1-.32Z" transform="translate(-2.13 -42.29)"/><path class="cls-2" d="M171,67.63H156.43l-2.15,4.5a3.68,3.68,0,0,0-.45,1.47c0,.69.53,1.17,1.57,1.43v.75H144.82V75a2.8,2.8,0,0,0,1.43-.65,6.81,6.81,0,0,0,1.13-1.83L159.14,48a4.56,4.56,0,0,0,.56-1.87c0-.72-.45-1.24-1.36-1.55v-.75h11.35v.75c-.92.27-1.39.73-1.39,1.38a3.43,3.43,0,0,0,.45,1.55l12.19,24.66a8.24,8.24,0,0,0,1.36,2.14,2.94,2.94,0,0,0,1.57.76v.75H172.09V75c1-.17,1.55-.65,1.55-1.45a3.61,3.61,0,0,0-.47-1.45Zm-2-4.39-5.18-11.39L158.5,63.24Z" transform="translate(-2.13 -42.29)"/><path class="cls-3" d="M207.5,61.69c-2.81,2.91-5.5,4.78-8.18,5.41-1.7.4-3.47.3-3.9-1.51-1-4.18,3.73-11.29,8.5-12.41,1.21-.29,2.94-.38,3.33,1.27.92,3.95-5.79,6.65-9,7.8a6.13,6.13,0,0,0,.09,1.73c.27,1.12,1,1.3,2.44,1a17.51,17.51,0,0,0,6.23-3.67Zm-2.91-6.51c-.18-.78-.55-1-1.24-.89-2.53.59-4.23,4.07-4.87,7C200.55,60.75,205.3,58.2,204.59,55.18Z" transform="translate(-2.13 -42.29)"/><path class="cls-3" d="M223.31,60.6A4.68,4.68,0,0,0,226,58.7l.54.28a6.52,6.52,0,0,1-5,3.55,2.2,2.2,0,0,1-2.72-1.68c-1.35,1.51-2.43,2.42-4.16,2.67-2.18.31-3.38-.32-3.52-1.26-.11-.79.44-1.88,2.44-2.73l.36.41a1.85,1.85,0,0,0-.66,1.71,1.28,1.28,0,0,0,1.58,1.14c1.83-.27,5.74-6.09,5.26-9.4-.17-1.14-.77-1.51-1.47-1.41A4.65,4.65,0,0,0,216,54l-.54-.22A6.08,6.08,0,0,1,220,50.11a2.84,2.84,0,0,1,3.13,1.72c1.35-1.5,2.46-2.53,4.25-2.78,2.12-.31,3,.33,3.1,1.22s-1.14,2.23-2.71,2.91l-.45-.29a4.68,4.68,0,0,0,1-2.51c-.06-.44-.35-.7-1.14-.59-1.83.26-5.74,6.08-5.26,9.4C222.07,60.38,222.62,60.7,223.31,60.6Z" transform="translate(-2.13 -42.29)"/><path class="cls-3" d="M240.89,50.79l-.18.36c2.53-2.87,4.31-3.39,5.86-3.46A2.14,2.14,0,0,1,249,49.88c.19,4.3-6.3,10.49-11.14,10.7a3.12,3.12,0,0,1-2.18-.61l-1.4,2.46c1.05-.14,2.05-.19,3-.23,7.34-.32,11.29,3,11.43,6.26.13,3-2.84,6-9.29,6.31a15.26,15.26,0,0,1-6.39-.92l.33-.47a15.14,15.14,0,0,0,5.89.8c3.74-.17,7.49-1.48,7.33-5.07-.2-4.65-6.16-5.89-11.6-5.66-.45,0-.9.09-1.35.11l-.32.57c-5.95,10.51-14.24,16.78-21.18,17.08-2.7.12-8-.71-8.15-4.55-.34-7.74,15.5-11.68,27.07-13.74l6.28-11c1.39-2.51.33-2.86-2.29-1l-.37-.38c1.64-1.43,3.39-2.5,4.79-2.56C241.12,47.92,241.69,49.4,240.89,50.79Zm-10.8,13.83.42-.67c-7.41,1.17-23.87,4.59-23.52,12.83.13,3,3,3.92,5.22,3.83C219.36,80.3,226.6,70.72,230.09,64.62Zm7.28-6.17a1.08,1.08,0,0,0,1.2,1.15c3.5-.16,7.36-5.83,7.23-8.72,0-.85-.45-1.14-1.2-1.1C242,49.89,237.24,55.35,237.37,58.45Z" transform="translate(-2.13 -42.29)"/><path class="cls-3" d="M261.75,49.19a7.51,7.51,0,0,1,4-1A2.67,2.67,0,0,1,268.51,50l-2.69,2.45-.43-.43a3.25,3.25,0,0,0,.61-1.77,1,1,0,0,0-1.09-1.21c-2-.11-3.82,2.09-5.51,4.39L255,59.62q-.33.43-.63.42c-.55,0-.84-1.1-.81-1.65A6.51,6.51,0,0,1,255,55.21l2.66-3.7c1.64-2.36.61-2.82-2.18-1.18l-.33-.41c1.77-1.26,3.63-2.15,5-2.07A1.52,1.52,0,0,1,261.75,49.19Z" transform="translate(-2.13 -42.29)"/><path class="cls-3" d="M281.47,59.33c-3.7,1.64-6.9,2.35-9.61,1.92-1.73-.27-3.33-1-3.05-2.85.67-4.25,7.71-9.07,12.55-8.31,1.23.2,2.87.76,2.6,2.44-.63,4-7.86,4-11.24,3.85a6.44,6.44,0,0,0-.56,1.63c-.17,1.14.46,1.59,1.9,1.82a17.31,17.31,0,0,0,7.15-1Zm-.24-7.13c.12-.79-.12-1.18-.81-1.29-2.57-.41-5.46,2.18-7.17,4.69C275.39,55.84,280.75,55.26,281.23,52.2Z" transform="translate(-2.13 -42.29)"/><path class="cls-3" d="M289,60a3.62,3.62,0,0,0-.81,1.44,1.79,1.79,0,0,0,1.39,2.34c1.59.43,4.09-.19,4.48-1.64.46-1.69-4-3.14-3.23-5.84.61-2.27,4.51-3.29,7.7-2.43a3.56,3.56,0,0,1,2.9,2.86l-2.77,1.63-.31-.39a4.47,4.47,0,0,0,1-1.66c.21-.77-.13-1.64-1.38-2s-3.53.19-3.94,1.73,3.92,3.29,3.18,6c-.53,2-4.52,3.13-7.95,2.21-1.83-.5-3.33-1.47-3.74-2.83l3.14-1.84Z" transform="translate(-2.13 -42.29)"/><path class="cls-3" d="M305.27,64.72a3.57,3.57,0,0,0-.95,1.35,1.79,1.79,0,0,0,1.13,2.47c1.54.59,4.09.24,4.63-1.16.63-1.63-3.61-3.54-2.61-6.15.85-2.19,4.84-2.8,7.91-1.61a3.58,3.58,0,0,1,2.6,3.14l-2.93,1.34-.27-.43a4.31,4.31,0,0,0,1.14-1.54c.29-.75,0-1.65-1.17-2.11s-3.52-.18-4.1,1.31,3.56,3.68,2.54,6.34c-.74,1.91-4.83,2.64-8.14,1.36-1.77-.69-3.16-1.81-3.43-3.2l3.32-1.51Z" transform="translate(-2.13 -42.29)"/><g class="cls-4"><g class="cls-4"><g class="cls-5"><g class="cls-4"><path class="cls-6" d="M314.39,96.85v7.5a2.81,2.81,0,0,0-.33-.13c-1.74-.62-3.26-1.15-4.77-1.64-.83-.26-1.65-.53-2.48-.77l-.81-.24-1.47-.44-1.12-.32-.83-.23a165,165,0,0,0-43.71-5.79,198.07,198.07,0,0,0-26.6,1.84v-7.5a198.07,198.07,0,0,1,26.6-1.84,165,165,0,0,1,43.71,5.79l.83.23,1.12.32,1.47.44.81.24c.83.24,1.65.51,2.48.77,1.51.49,3,1,4.77,1.64a2.81,2.81,0,0,1,.33.13" transform="translate(-2.13 -42.29)"/><path class="cls-7" d="M232.27,89.13v7.5q-2.82.39-5.58.84l-3.85.67v-7.5l3.85-.67q2.76-.45,5.58-.84" transform="translate(-2.13 -42.29)"/></g></g></g><g class="cls-4"><g class="cls-8"><g class="cls-4"><path class="cls-9" d="M280.74,93.26v7.5a163.24,163.24,0,0,0-22.06-1.47,184.81,184.81,0,0,0-21.59,1.3v-7.5a184.81,184.81,0,0,1,21.59-1.3,163.24,163.24,0,0,1,22.06,1.47" transform="translate(-2.13 -42.29)"/></g></g></g><g class="cls-4"><g class="cls-10"><g class="cls-4"><path class="cls-9" d="M280.74,93.26v7.5a163.24,163.24,0,0,0-22.06-1.47,184.81,184.81,0,0,0-21.59,1.3v-7.5a184.81,184.81,0,0,1,21.59-1.3,163.24,163.24,0,0,1,22.06,1.47" transform="translate(-2.13 -42.29)"/></g></g></g><g class="cls-4"><g class="cls-11"><g class="cls-4"><path class="cls-9" d="M282.82,93.55v7.5l-2.08-.29v-7.5l2.08.29" transform="translate(-2.13 -42.29)"/></g></g></g><g class="cls-4"><g class="cls-12"><g class="cls-4"><path class="cls-9" d="M283.87,93.71v7.5l-1.05-.16v-7.5l1.05.16" transform="translate(-2.13 -42.29)"/></g></g></g><g class="cls-4"><g class="cls-13"><g class="cls-4"><path class="cls-9" d="M285.86,94v7.5c-.67-.12-1.34-.23-2-.32v-7.5c.65.09,1.32.2,2,.32" transform="translate(-2.13 -42.29)"/></g></g></g><g class="cls-4"><g class="cls-14"><g class="cls-4"><path class="cls-9" d="M311.36,100.62v7.5l-1.5-.53q-.94-.33-1.89-.63c-.89-.3-1.77-.58-2.66-.85l-2.49-.74c-1.64-.48-3.27-.92-4.91-1.34s-3.35-.81-5-1.17c-1.12-.24-2.25-.46-3.37-.68-.72-.14-1.4-.27-2.08-.38l-1.58-.27V94l1.58.27c.68.11,1.36.24,2.08.38,1.12.22,2.25.44,3.37.68,1.67.36,3.33.75,5,1.17s3.27.86,4.91,1.34l2.49.74c.89.27,1.77.55,2.66.85q.94.3,1.89.63l1.5.53" transform="translate(-2.13 -42.29)"/></g></g></g><g class="cls-4"><g class="cls-15"><g class="cls-4"><path class="cls-6" d="M201.81,95.49V103a5.21,5.21,0,0,1,0-.55v-7.5a5.21,5.21,0,0,0,0,.55" transform="translate(-2.13 -42.29)"/></g></g></g><g class="cls-4"><g class="cls-16"><g class="cls-4"><path class="cls-7" d="M222.84,90.64v7.5c-7.43,1.34-14.47,3-21,4.85v-7.5c6.56-1.83,13.6-3.51,21-4.85" transform="translate(-2.13 -42.29)"/></g></g></g><g class="cls-4"><g class="cls-17"><g class="cls-4"><path class="cls-6" d="M315.18,97.14v7.5l-.79-.29v-7.5l.79.29" transform="translate(-2.13 -42.29)"/></g></g></g><g class="cls-4"><g class="cls-18"><g class="cls-4"><path class="cls-9" d="M311.36,100.62v7.5l-1.5-.53q-.94-.33-1.89-.63c-.89-.3-1.77-.58-2.66-.85l-2.49-.74c-1.64-.48-3.27-.92-4.91-1.34s-3.35-.81-5-1.17c-1.12-.24-2.25-.46-3.37-.68-.72-.14-1.4-.27-2.08-.38l-1.58-.27V94l1.58.27c.68.11,1.36.24,2.08.38,1.12.22,2.25.44,3.37.68,1.67.36,3.33.75,5,1.17s3.27.86,4.91,1.34l2.49.74c.89.27,1.77.55,2.66.85q.94.3,1.89.63l1.5.53" transform="translate(-2.13 -42.29)"/></g></g></g><path class="cls-19" d="M258.44,87.29a165.78,165.78,0,0,1,44.14,5.79l.83.23,1.09.31,1.5.45.81.24c.83.24,1.65.51,2.48.77,1.51.49,3,1,4.55,1.56a5.66,5.66,0,0,1,.55.21l.82.33,3.69,3.92-4.73.56-.58-.23-.78-.3-1.45-.51-1.5-.53q-.94-.33-1.89-.63c-.89-.3-1.77-.58-2.66-.85l-2.49-.74c-1.64-.48-3.27-.92-4.91-1.34s-3.35-.81-5-1.17c-1.12-.24-2.25-.46-3.37-.68-.72-.14-1.4-.27-2.08-.38L285.86,94c-.67-.12-1.34-.23-2-.32l-1.05-.16-2.08-.29a163.24,163.24,0,0,0-22.06-1.47,184.81,184.81,0,0,0-21.59,1.3c-4.35.48-8.6,1.11-12.73,1.85A208.82,208.82,0,0,0,202.87,100a8.06,8.06,0,0,1-.9-2.09,8.3,8.3,0,0,1-.33-2.39c6.73-1.88,13.77-3.56,21.2-4.9l3.85-.67A199,199,0,0,1,258.44,87.29Z" transform="translate(-2.13 -42.29)"/><path class="cls-20" d="M258.64,82.42a163.41,163.41,0,0,1,49.71,7.49l6.83,7.23-.79-.29a2.81,2.81,0,0,0-.33-.13c-1.74-.62-3.26-1.15-4.77-1.64-.83-.26-1.65-.53-2.48-.77l-.81-.24-1.47-.44-1.12-.32-.83-.23a165,165,0,0,0-43.71-5.79A200.21,200.21,0,0,0,226.69,90l-3.85.67c-7.43,1.34-14.47,3-21,4.85a7.78,7.78,0,0,1,1.72-5.34C208.12,88.9,213,87.74,218,86.7A203.71,203.71,0,0,1,258.64,82.42Z" transform="translate(-2.13 -42.29)"/><g class="cls-4"><g class="cls-21"><g class="cls-4"><path class="cls-9" d="M202.87,100v7.5a8.06,8.06,0,0,1-.9-2.09,8.32,8.32,0,0,1-.33-2.24v-7.5a8.32,8.32,0,0,0,.33,2.24,8.06,8.06,0,0,0,.9,2.09" transform="translate(-2.13 -42.29)"/></g></g></g><g class="cls-4"><g class="cls-22"><g class="cls-4"><path class="cls-9" d="M237.09,93.09v7.5c-1.56.17-3.12.37-4.66.58v-7.5c1.54-.21,3.1-.41,4.66-.58" transform="translate(-2.13 -42.29)"/><path class="cls-23" d="M232.43,93.67v7.5c-2.74.37-5.43.8-8.07,1.27a208.82,208.82,0,0,0-21.49,5.08V100a208.82,208.82,0,0,1,21.49-5.08c2.64-.47,5.33-.9,8.07-1.27" transform="translate(-2.13 -42.29)"/></g></g></g><g class="cls-4"><g class="cls-24"><g class="cls-4"><path class="cls-9" d="M237.09,93.09v7.5q-1.93.22-3.84.48v-7.5q1.91-.25,3.84-.48" transform="translate(-2.13 -42.29)"/><path class="cls-23" d="M233.25,93.57v7.5q-4.53.63-8.9,1.43c-7.59,1.38-14.8,3.11-21.48,5V100c6.68-1.91,13.89-3.64,21.48-5q4.36-.8,8.9-1.43" transform="translate(-2.13 -42.29)"/></g></g></g><path class="cls-19" d="M224.36,94.94c4.13-.74,8.38-1.37,12.73-1.85-4.35.5-8.6,1.15-12.74,1.91-7.59,1.38-14.8,3.11-21.48,5A208.82,208.82,0,0,1,224.36,94.94Z" transform="translate(-2.13 -42.29)"/><g class="cls-4"><g class="cls-25"><g class="cls-4"><path class="cls-9" d="M312.81,101.13v7.5l-1.45-.51v-7.5l1.45.51" transform="translate(-2.13 -42.29)"/></g></g></g><g class="cls-4"><g class="cls-26"><g class="cls-4"><path class="cls-9" d="M313.59,101.43v7.5l-.78-.3v-7.5l.78.3" transform="translate(-2.13 -42.29)"/></g></g></g><polygon class="cls-27" points="316.76 58.81 316.76 66.31 312.04 66.87 312.04 59.37 316.76 58.81"/><g class="cls-4"><g class="cls-28"><g class="cls-4"><path class="cls-9" d="M314.17,101.66v7.5l-.58-.23v-7.5l.58.23" transform="translate(-2.13 -42.29)"/></g></g></g><polygon class="cls-29" points="312.04 59.37 312.04 66.87 301.7 68.12 301.7 60.62 312.04 59.37"/><g class="cls-4"><g class="cls-30"><g class="cls-4"><path class="cls-6" d="M303.83,102.91v7.5A152,152,0,0,0,259,103.87a182.59,182.59,0,0,0-24.68,1.72v-7.5A182.59,182.59,0,0,1,259,96.37a152,152,0,0,1,44.85,6.54" transform="translate(-2.13 -42.29)"/><path class="cls-7" d="M234.3,98.09v7.5c-3.78.52-7.48,1.14-11.08,1.83-5.76,1.12-11.27,2.44-16.5,3.86v-7.5c5.23-1.42,10.74-2.74,16.5-3.86,3.6-.69,7.3-1.31,11.08-1.83" transform="translate(-2.13 -42.29)"/></g></g></g><g class="cls-4"><g class="cls-31"><g class="cls-4"><path class="cls-6" d="M206.72,103.78v7.5a10.16,10.16,0,0,1-3.85-3.76V100a10.16,10.16,0,0,0,3.85,3.76" transform="translate(-2.13 -42.29)"/></g></g></g><path class="cls-20" d="M258.78,91.85a168.28,168.28,0,0,1,22,1.41l2.08.29,1.05.16c.65.09,1.32.2,2,.32l1.58.27c.68.11,1.36.24,2,.37,1.16.23,2.29.45,3.41.69,1.67.36,3.33.75,5,1.17s3.27.86,4.91,1.34l2.49.74c.89.27,1.77.55,2.66.85q.94.3,1.89.63l1.5.53,1.29.46.94.35.58.23-10.34,1.25A152,152,0,0,0,259,96.37a189.21,189.21,0,0,0-35.76,3.55c-5.76,1.12-11.27,2.44-16.5,3.86a10.16,10.16,0,0,1-3.85-3.76c6.68-1.91,13.89-3.64,21.48-5,4.14-.76,8.39-1.41,12.74-1.91A195.7,195.7,0,0,1,258.78,91.85Z" transform="translate(-2.13 -42.29)"/></g><g class="cls-4"><g class="cls-4"><g class="cls-32"><g class="cls-4"><path class="cls-33" d="M264.26,112.44v7.5H264c-.82,0-1.63,0-2.44,0v-7.5c.81,0,1.62,0,2.44,0h.31" transform="translate(-2.13 -42.29)"/></g></g></g><g class="cls-4"><g class="cls-34"><g class="cls-4"><path class="cls-33" d="M261.51,112.39v7.5h-1.82c-1.21,0-2.41,0-3.61,0s-2.39.06-3.59.11v-7.5c1.2-.05,2.39-.08,3.59-.11s2.4,0,3.61,0h1.82" transform="translate(-2.13 -42.29)"/></g></g></g><g class="cls-4"><g class="cls-35"><g class="cls-4"><path class="cls-33" d="M269.44,112.67v7.5c-1.74-.11-3.46-.18-5.18-.23v-7.5c1.72,0,3.44.12,5.18.23" transform="translate(-2.13 -42.29)"/></g></g></g><g class="cls-4"><g class="cls-36"><g class="cls-4"><path class="cls-33" d="M252.49,112.54V120c-1.18,0-2.35.11-3.53.19v-7.5c1.18-.08,2.35-.14,3.53-.19" transform="translate(-2.13 -42.29)"/></g></g></g><g class="cls-4"><g class="cls-37"><g class="cls-4"><path class="cls-33" d="M271.89,112.82v7.5c-.81-.06-1.63-.11-2.45-.15v-7.5c.82,0,1.64.09,2.45.15" transform="translate(-2.13 -42.29)"/></g></g></g><g class="cls-4"><g class="cls-38"><g class="cls-4"><path class="cls-33" d="M249,112.73v7.5c-1,.06-2,.13-3,.21l-.55,0V113l.55,0c1-.08,2-.15,3-.21" transform="translate(-2.13 -42.29)"/></g></g></g><g class="cls-4"><g class="cls-39"><g class="cls-4"><path class="cls-33" d="M249,112.73v7.5c-1,.06-2,.13-3,.21l-.55,0V113l.55,0c1-.08,2-.15,3-.21" transform="translate(-2.13 -42.29)"/></g></g></g><g class="cls-4"><g class="cls-40"><g class="cls-4"><path class="cls-33" d="M245.45,113v7.5l-.59,0-2.91.28v-7.5l2.91-.28.59,0" transform="translate(-2.13 -42.29)"/></g></g></g><g class="cls-4"><g class="cls-41"><g class="cls-4"><path class="cls-33" d="M275.17,113.1v7.5c-1.09-.11-2.19-.21-3.28-.28v-7.5c1.09.07,2.19.17,3.28.28" transform="translate(-2.13 -42.29)"/></g></g></g><g class="cls-4"><g class="cls-42"><g class="cls-4"><path class="cls-33" d="M245.45,113v7.5l-.59,0-2.91.28v-7.5l2.91-.28.59,0" transform="translate(-2.13 -42.29)"/></g></g></g><g class="cls-4"><g class="cls-43"><g class="cls-4"><path class="cls-33" d="M242,113.31v7.5c-1.15.11-2.29.24-3.42.38v-7.5c1.13-.14,2.27-.27,3.42-.38" transform="translate(-2.13 -42.29)"/></g></g></g><g class="cls-4"><g class="cls-44"><g class="cls-4"><path class="cls-33" d="M280.47,113.7v7.5l-.36-.06c-1.64-.21-3.3-.39-4.94-.54v-7.5c1.64.15,3.3.33,4.94.54l.36.06" transform="translate(-2.13 -42.29)"/></g></g></g><g class="cls-4"><g class="cls-45"><g class="cls-4"><path class="cls-33" d="M283.45,114.11v7.5c-1-.16-2-.3-3-.41v-7.5c1,.11,2,.25,3,.41" transform="translate(-2.13 -42.29)"/></g></g></g><g class="cls-4"><g class="cls-46"><g class="cls-4"><path class="cls-33" d="M285.7,114.47V122c-.75-.14-1.49-.25-2.25-.36v-7.5c.76.11,1.5.22,2.25.36" transform="translate(-2.13 -42.29)"/></g></g></g><g class="cls-4"><g class="cls-47"><g class="cls-4"><path class="cls-33" d="M286.84,114.65v7.5q-.57-.11-1.14-.18v-7.5q.57.07,1.14.18" transform="translate(-2.13 -42.29)"/></g></g></g><g class="cls-4"><g class="cls-48"><g class="cls-4"><path class="cls-33" d="M293.79,116v7.5c-.81-.19-1.61-.35-2.4-.52l-1-.21c-1.18-.23-2.35-.45-3.51-.65v-7.5c1.16.2,2.33.42,3.51.65l1,.21c.79.17,1.59.33,2.4.52" transform="translate(-2.13 -42.29)"/></g></g></g><g class="cls-4"><g class="cls-49"><g class="cls-4"><path class="cls-33" d="M296.62,116.67v7.5c-.94-.22-1.88-.44-2.83-.64V116c.95.2,1.89.42,2.83.64" transform="translate(-2.13 -42.29)"/></g></g></g><g class="cls-4"><g class="cls-50"><g class="cls-4"><path class="cls-33" d="M301.65,118v7.5l-2.15-.59-2.88-.74v-7.5l2.88.74,2.15.59" transform="translate(-2.13 -42.29)"/></g></g></g><g class="cls-4"><g class="cls-51"><g class="cls-4"><path class="cls-33" d="M238.53,113.69v7.5c-1.12.13-2.24.28-3.35.43v-7.5c1.11-.15,2.23-.3,3.35-.43" transform="translate(-2.13 -42.29)"/><path class="cls-52" d="M235.18,114.12v7.5A209.72,209.72,0,0,0,212.65,126c-2.68.66-5.3,1.38-7.82,2.1v-7.5c2.52-.72,5.14-1.44,7.82-2.1a209.72,209.72,0,0,1,22.53-4.37" transform="translate(-2.13 -42.29)"/></g></g></g><g class="cls-4"><g class="cls-53"><g class="cls-4"><path class="cls-52" d="M235.18,114.12v7.5A209.72,209.72,0,0,0,212.65,126c-2.68.66-5.3,1.38-7.82,2.1v-7.5c2.52-.72,5.14-1.44,7.82-2.1a209.72,209.72,0,0,1,22.53-4.37" transform="translate(-2.13 -42.29)"/></g></g></g><g class="cls-4"><g class="cls-54"><g class="cls-4"><path class="cls-33" d="M306,119.28v7.5c-1.43-.45-2.86-.88-4.3-1.28V118c1.44.4,2.87.83,4.3,1.28" transform="translate(-2.13 -42.29)"/></g></g></g><g class="cls-4"><g class="cls-55"><g class="cls-4"><path class="cls-56" d="M288.76,119.81v7.5l-1.17-.22c-1.46-.26-2.92-.5-4.37-.71a159.05,159.05,0,0,0-22.9-1.66H260v-7.5h.28a159.05,159.05,0,0,1,22.9,1.66c1.45.21,2.91.45,4.37.71l1.17.22" transform="translate(-2.13 -42.29)"/></g></g></g><g class="cls-4"><g class="cls-57"><g class="cls-4"><path class="cls-52" d="M235.18,114.12v7.5A209.72,209.72,0,0,0,212.65,126c-2.68.66-5.3,1.38-7.82,2.1v-7.5c2.52-.72,5.14-1.44,7.82-2.1a209.72,209.72,0,0,1,22.53-4.37" transform="translate(-2.13 -42.29)"/></g></g></g><g class="cls-4"><g class="cls-58"><g class="cls-4"><path class="cls-52" d="M235.18,114.12v7.5A209.72,209.72,0,0,0,212.65,126c-2.68.66-5.3,1.38-7.82,2.1v-7.5c2.52-.72,5.14-1.44,7.82-2.1a209.72,209.72,0,0,1,22.53-4.37" transform="translate(-2.13 -42.29)"/></g></g></g><g class="cls-4"><g class="cls-59"><g class="cls-4"><path class="cls-33" d="M311,121v7.5l-2.88-1c-.71-.25-1.43-.47-2.15-.71v-7.5c.72.24,1.44.46,2.15.71l2.88,1" transform="translate(-2.13 -42.29)"/></g></g></g><path class="cls-60" d="M259.79,107.55a154.8,154.8,0,0,1,35.27,4A142.35,142.35,0,0,1,310.32,116a8.25,8.25,0,0,1,.81,1.91,8.36,8.36,0,0,1,.35,2.79,3.87,3.87,0,0,1-.05.49L311,121l-2.88-1c-.71-.25-1.43-.47-2.15-.71-1.43-.45-2.86-.88-4.3-1.28l-2.15-.59-2.88-.74c-.94-.22-1.88-.44-2.83-.64s-1.61-.35-2.4-.52l-1-.21c-1.18-.23-2.35-.45-3.51-.65q-.57-.11-1.14-.18c-.75-.14-1.49-.25-2.25-.36-1-.16-2-.3-3-.41l-.36-.06c-1.64-.21-3.3-.39-4.94-.54-1.09-.11-2.19-.21-3.28-.28-.81-.06-1.63-.11-2.45-.15-1.74-.11-3.46-.18-5.18-.23H264c-.82,0-1.63,0-2.44,0h-1.82c-1.21,0-2.41,0-3.61,0s-2.39.06-3.59.11-2.35.11-3.53.19c-1,.06-2,.13-3,.21l-.55,0-.59,0-2.91.28c-1.15.11-2.29.24-3.42.38a207.87,207.87,0,0,0-25.88,4.8c-2.68.66-5.3,1.38-7.82,2.1l6.87-6.72A195.88,195.88,0,0,1,259.79,107.55Z" transform="translate(-2.13 -42.29)"/><g class="cls-4"><g class="cls-61"><g class="cls-4"><path class="cls-33" d="M311.43,121.15v7.5l-.45-.17V121l.45.17" transform="translate(-2.13 -42.29)"/></g></g></g><g class="cls-4"><g class="cls-62"><g class="cls-4"><path class="cls-63" d="M311.49,120.28v7.5c0,.13,0,.25,0,.38v-7.5c0-.13,0-.25,0-.38" transform="translate(-2.13 -42.29)"/><path class="cls-64" d="M311.47,120.76v7.5a1.72,1.72,0,0,1,0,.39v-7.5a1.72,1.72,0,0,0,0-.39" transform="translate(-2.13 -42.29)"/></g></g></g><g class="cls-4"><g class="cls-65"><g class="cls-4"><path class="cls-56" d="M303.11,123.23v7.5l-2-.57c-.78-.22-1.57-.42-2.36-.63l-2-.51c-.58-.15-1.17-.29-1.75-.42l-1.76-.39c-.88-.19-1.75-.38-2.62-.55l-1.85-.35v-7.5l1.85.35c.87.17,1.74.36,2.62.55l1.76.39c.58.13,1.17.27,1.75.42l2,.51c.79.21,1.58.41,2.36.63l2,.57" transform="translate(-2.13 -42.29)"/></g></g></g><g class="cls-4"><g class="cls-66"><g class="cls-4"><path class="cls-67" d="M311.43,121.15v7.5a5.78,5.78,0,0,1-.19,1.2,10.87,10.87,0,0,1-.34,1.09c0,.12-.08.22-.12.32v-7.5c0-.1.08-.2.12-.32a10.87,10.87,0,0,0,.34-1.09,5.78,5.78,0,0,0,.19-1.2" transform="translate(-2.13 -42.29)"/></g></g></g><g class="cls-4"><g class="cls-68"><g class="cls-4"><path class="cls-56" d="M306.75,124.37v7.5c-1.21-.4-2.43-.78-3.64-1.14v-7.5c1.21.36,2.43.74,3.64,1.14" transform="translate(-2.13 -42.29)"/></g></g></g><g class="cls-4"><g class="cls-69"><g class="cls-4"><path class="cls-56" d="M260,117.22v7.5h-.27a181.31,181.31,0,0,0-24.48,1.73V119a181.31,181.31,0,0,1,24.48-1.73H260" transform="translate(-2.13 -42.29)"/><path class="cls-70" d="M235.29,119v7.5c-4.83.66-9.53,1.48-14.07,2.43q-3.28.68-6.45,1.44l-1.18.28c-.58.14-1.15.28-1.7.43l-2.16.56-2,.54c-.7.2-1.39.38-2.05.59v-7.5c.66-.21,1.35-.39,2.05-.59l2-.54,2.16-.56c.55-.15,1.12-.29,1.7-.43l1.18-.28q3.16-.76,6.45-1.44c4.54-.95,9.24-1.77,14.07-2.43" transform="translate(-2.13 -42.29)"/></g></g></g><polygon class="cls-71" points="203.53 82.93 203.53 90.43 199.13 89.28 199.13 81.78 203.53 82.93"/><g class="cls-4"><g class="cls-72"><g class="cls-4"><path class="cls-56" d="M309.86,125.4v7.5l-1.16-.4c-.69-.22-1.32-.44-1.95-.63v-7.5c.63.19,1.26.41,1.95.63l1.16.4" transform="translate(-2.13 -42.29)"/></g></g></g><polygon class="cls-73" points="308.64 81.47 308.64 88.97 307.73 90.61 307.73 83.11 308.64 81.47"/><path class="cls-60" d="M260,117.22h.28a159.05,159.05,0,0,1,22.9,1.66c1.45.21,2.91.45,4.37.71l1.17.22,1.85.35c.87.17,1.74.36,2.62.55l1.76.39c.58.13,1.17.27,1.75.42l2,.51c.79.21,1.58.41,2.36.63l2,.57c1.21.36,2.43.74,3.64,1.14l1.9.62,1.21.42a9.92,9.92,0,0,1-1.28,1.48,11.15,11.15,0,0,1-2.33,1.72,139.26,139.26,0,0,0-16.6-4.45,143.54,143.54,0,0,0-28.71-2.84,187.61,187.61,0,0,0-46.44,6.32l-8.93-2.41,2.14-.6,2-.54,2.16-.56c.55-.15,1.12-.29,1.7-.43l1.18-.28q3.16-.76,6.45-1.44a191,191,0,0,1,38.55-4.16Z" transform="translate(-2.13 -42.29)"/><path class="cls-74" d="M259.69,112.39h1.82l2.44,0h.29c1.74,0,3.46.13,5.2.23.82,0,1.64.09,2.45.15,1.09.08,2.19.17,3.28.28,1.64.15,3.3.33,4.94.54l.36.06c1,.12,2,.26,3,.41.76.11,1.5.22,2.25.36l1.14.18c1.16.2,2.33.42,3.51.65l1,.21c.79.17,1.59.33,2.4.52s1.89.42,2.83.64l2.88.74,2.15.59c1.43.41,2.87.83,4.3,1.28.72.24,1.44.46,2.15.71l2.88,1,.45.17a5.78,5.78,0,0,1-.19,1.2,10.87,10.87,0,0,1-.34,1.09c0,.12-.08.22-.12.32l-.92,1.64-1.16-.4c-.69-.22-1.32-.44-1.95-.63-1.21-.4-2.43-.78-3.64-1.14l-2-.57c-.78-.22-1.57-.42-2.36-.63l-2-.51c-.58-.15-1.17-.29-1.75-.42l-1.76-.39c-.88-.19-1.75-.38-2.62-.55l-1.85-.35-1.17-.22c-1.46-.26-2.92-.5-4.37-.71a159.05,159.05,0,0,0-22.9-1.66h-.55a191,191,0,0,0-38.55,4.16q-3.28.68-6.45,1.44l-1.18.28c-.58.14-1.15.28-1.7.43l-2.16.56-2,.54c-.7.2-1.39.38-2.05.59l-4.39-1.15,3.53-3.46c2.55-.73,5.16-1.44,7.84-2.11a212.67,212.67,0,0,1,25.86-4.81l3.45-.38,2.91-.28.56,0,.58,0q1.47-.12,2.94-.21l3.55-.19c1.2-.05,2.39-.08,3.59-.11S258.48,112.39,259.69,112.39Z" transform="translate(-2.13 -42.29)"/><polygon class="cls-75" points="212.37 85.35 212.37 92.85 203.44 90.44 203.44 82.94 212.37 85.35"/><g class="cls-4"><g class="cls-76"><g class="cls-4"><path class="cls-33" d="M306.25,128.61v7.5a139.26,139.26,0,0,0-16.6-4.45,143.54,143.54,0,0,0-28.71-2.84,165.8,165.8,0,0,0-22.58,1.58v-7.5a165.8,165.8,0,0,1,22.58-1.58,143.54,143.54,0,0,1,28.71,2.84,139.26,139.26,0,0,1,16.6,4.45" transform="translate(-2.13 -42.29)"/><path class="cls-52" d="M238.36,122.9v7.5a213.37,213.37,0,0,0-23.86,4.74v-7.5a213.37,213.37,0,0,1,23.86-4.74" transform="translate(-2.13 -42.29)"/></g></g></g><g class="cls-4"><g class="cls-77"><g class="cls-4"><path class="cls-64" d="M309.86,125.41v7.5a7,7,0,0,1-.53.69v-7.5a7,7,0,0,0,.53-.69" transform="translate(-2.13 -42.29)"/><path class="cls-63" d="M309.33,126.1v7.5a9.25,9.25,0,0,1-.75.79,11.32,11.32,0,0,1-1.75,1.38v-7.5a11.32,11.32,0,0,0,1.75-1.38,9.25,9.25,0,0,0,.75-.79" transform="translate(-2.13 -42.29)"/><path class="cls-78" d="M306.83,128.27v7.5l-.58.34v-7.5l.58-.34" transform="translate(-2.13 -42.29)"/></g></g></g></g><path class="cls-79" d="M306.56,96.87l-.88-.24.84.21Z" transform="translate(-2.13 -42.29)"/></g></g></g></svg>