<svg id="Print" xmlns="http://www.w3.org/2000/svg" viewBox="0 0 283.46 99.21"><defs><style>.cls-1{fill:#fff;}.cls-2{fill:#e30b13;}</style></defs><path class="cls-1" d="M56.72,49l6.05-11.06h6.49a38.1,38.1,0,0,1,3.93.12c-.43-.64-1.38-2.43-2-3.64L66.36,25,53.44,49H41.59l18.5-34.34c1.39-2.59,3.33-4.9,6.44-4.9s5,2.13,6.4,4.9L90.91,49Z"/><path class="cls-1" d="M125,49l-5.7-9.73H105.71V49H95.35V28.45h27.14c2.47,0,3.82-1.11,3.82-3.69s-1.35-3.58-3.82-3.58H95.39l6.78-11.44h19c6.78,0,15.89,2.64,15.89,14.26,0,5.86-2.65,11-7.32,12.49.81.7,2.83,3,6.91,9.27L138.83,49Z"/><path class="cls-1" d="M170.8,49l-5.7-9.73H151.55V49H141.19V28.45h27.14c2.47,0,3.82-1.11,3.82-3.69s-1.35-3.58-3.82-3.58h-27.1L148,9.74h19c6.78,0,15.89,2.64,15.89,14.26,0,5.86-2.65,11-7.32,12.49.81.7,2.83,3,6.91,9.27L184.67,49Z"/><path class="cls-1" d="M255.48,49V21.18H241.84l6.73-11.44h33.92l-6.73,11.44h-9.87V49Z"/><path class="cls-1" d="M198.15,17.15,187.78,30l.05,18.66h10.36V17.1Z"/><path class="cls-1" d="M220.8,49c-12.46,0-18.73-6.08-18.73-19.68S208.34,9.67,220.8,9.67s18.76,6,18.76,19.63S233.26,49,220.8,49Zm0-28.22c-7.51,0-10.06,1-10.06,8.54s2.55,8.59,10.06,8.59,10.09-1.08,10.09-8.59S228.34,20.76,220.8,20.76Z"/><path class="cls-1" d="M27.61,9.74V23.12H11.24v-6L1,30.16V49H11.24V34.44H27.61V49H37.87V9.74Z"/><polygon class="cls-2" points="11.24 9.74 11.24 15.66 0.95 28.73 0.95 9.74 11.24 9.74"/><polygon class="cls-2" points="198.19 9.74 198.19 15.66 187.78 28.73 187.78 9.74 198.19 9.74"/><path class="cls-1" d="M162.93,64.64l.71-.92h9.58c2.36,0,3.49-.78,3.49-2.47,0-1.88-1.33-2.35-3.88-2.35H168c-3,0-4.41-1-4.41-3.18s1.45-3.36,4.55-3.36h9.39l-.7.94h-8.74c-2.33,0-3.5.79-3.5,2.48s1.33,2.29,3.9,2.29h4.82c2.93,0,4.4,1,4.4,3.18s-1.44,3.39-4.58,3.39Z"/><path class="cls-1" d="M185.88,64.64c-5.11,0-7.7-1.89-7.7-6.13s2.59-6.12,7.7-6.12,7.7,1.88,7.7,6.12S191,64.64,185.88,64.64Zm0-11.35c-4.5,0-6.65,1.49-6.65,5.22s2.15,5.25,6.65,5.25,6.64-1.51,6.64-5.25S190.39,53.29,185.88,53.29Z"/><path class="cls-1" d="M239,52.51l-4.36,11.64c-.14.34-.34.53-.64.53a.67.67,0,0,1-.63-.43l-4.52-10.7-4.49,10.7a.66.66,0,0,1-1.27-.1l-4-10.86,0,0h-6.28V64.75h-1.05V53.33h-16.3v4.93h10.2l-.67.86h-9.53v5.63h-1.06V52.39h25.39c1.37,3.64,2.74,7.3,4.12,11l4.36-10.52a.64.64,0,0,1,.65-.44.63.63,0,0,1,.66.44l4.35,10.52L238,52.51Z"/><path class="cls-1" d="M240.38,64.67l.67-.91h10l-6.6-10.16-7.29,11.07h-1.23l7.82-11.87a.81.81,0,0,1,1.42,0l7.77,11.87Z"/><path class="cls-1" d="M267.08,64.67,262,60.22h-7.5v4.45h-1V59.32H262c2.49,0,4.47-.88,4.47-2.94s-1.87-3.06-4.47-3.06h-8.63l.71-.94h8.26c2.85,0,5.22,1.19,5.22,3.95,0,2.35-1.79,3.6-4.45,3.69l5.42,4.65Z"/><path class="cls-1" d="M269.26,64.67V52.37h12.16l-.7.93H270.31V58h10.63l-.63.83h-10v4.89h11.22l-.7.92Z"/></svg>