<svg xmlns="http://www.w3.org/2000/svg" viewBox="0 0 261.6 37.71"><defs><style>.a{fill:#ed1c24;}</style></defs><path d="M5.8,8.61a11.85,11.85,0,0,1,8.85-3.55q7.19,0,10.51,4.76a10.45,10.45,0,0,1,2,5.38h-6a8.15,8.15,0,0,0-1.47-3.13,5.92,5.92,0,0,0-4.76-1.87,5.86,5.86,0,0,0-5.07,2.64C8.57,14.61,8,17.1,8,20.33s.65,5.65,2,7.26a6.11,6.11,0,0,0,5,2.41,5.63,5.63,0,0,0,4.72-2.07,9,9,0,0,0,1.49-3.34h6a13,13,0,0,1-3.95,7.66,11.53,11.53,0,0,1-8.15,3,12.23,12.23,0,0,1-9.66-4q-3.51-4-3.51-11Q1.8,12.7,5.8,8.61Z" transform="translate(-1.8 -5.06)"/><path d="M49.24,31.79q-2.7,3.33-8.19,3.33t-8.18-3.33a12.31,12.31,0,0,1-2.69-8,12.38,12.38,0,0,1,2.69-8q2.7-3.37,8.18-3.38t8.19,3.38a12.38,12.38,0,0,1,2.69,8A12.31,12.31,0,0,1,49.24,31.79Zm-4.45-3.08a8.06,8.06,0,0,0,1.3-4.93,8.08,8.08,0,0,0-1.3-4.93A4.44,4.44,0,0,0,41,17.13a4.43,4.43,0,0,0-3.76,1.72A8,8,0,0,0,36,23.78a8,8,0,0,0,1.32,4.93A4.42,4.42,0,0,0,41,30.45,4.43,4.43,0,0,0,44.79,28.71Z" transform="translate(-1.8 -5.06)"/><path d="M60.23,27.6A3.75,3.75,0,0,0,61,29.71c.69.74,2,1.11,3.85,1.11a5.83,5.83,0,0,0,2.62-.49,1.56,1.56,0,0,0,1-1.46,1.59,1.59,0,0,0-.78-1.43,33.41,33.41,0,0,0-5.83-1.68,12.2,12.2,0,0,1-5.11-2.24,4.89,4.89,0,0,1-1.49-3.83,6.65,6.65,0,0,1,2.32-5.07,9.36,9.36,0,0,1,6.53-2.12,12,12,0,0,1,6.51,1.59c1.68,1.06,2.64,2.9,2.89,5.5H67.91a3.27,3.27,0,0,0-.61-1.7,3.84,3.84,0,0,0-3.13-1.13,4.62,4.62,0,0,0-2.6.56,1.64,1.64,0,0,0-.77,1.33A1.45,1.45,0,0,0,61.62,20a36,36,0,0,0,5.82,1.54,10.63,10.63,0,0,1,5,2.37,5.32,5.32,0,0,1,1.64,4,6.46,6.46,0,0,1-2.36,5.17q-2.36,2-7.29,2T57,33a6.88,6.88,0,0,1-2.4-5.4Z" transform="translate(-1.8 -5.06)"/><path d="M76,17.27v-4h3V7.36h5.5V13.3h3.46v4H84.45V28.52a2.48,2.48,0,0,0,.34,1.63,3.68,3.68,0,0,0,2,.32h.53l.56,0v4.16l-2.64.1c-2.63.09-4.42-.37-5.39-1.37A4.09,4.09,0,0,1,79,30.37V17.27Z" transform="translate(-1.8 -5.06)"/><path d="M99.92,21.45a9.11,9.11,0,0,0,2.22-.49,1.68,1.68,0,0,0,1.2-1.58,1.87,1.87,0,0,0-.92-1.81,5.84,5.84,0,0,0-2.7-.5,3.53,3.53,0,0,0-2.83,1,4.05,4.05,0,0,0-.8,1.95H90.72a8.16,8.16,0,0,1,1.57-4.59q2.22-2.81,7.61-2.81A13.64,13.64,0,0,1,106.14,14c1.82.93,2.73,2.67,2.73,5.24V29c0,.68,0,1.5,0,2.47a3.15,3.15,0,0,0,.33,1.48,1.87,1.87,0,0,0,.82.64v.82H104a6.44,6.44,0,0,1-.35-1.21q-.09-.55-.15-1.29A11.33,11.33,0,0,1,100.82,34a8,8,0,0,1-4.08,1,7.08,7.08,0,0,1-4.81-1.65A5.88,5.88,0,0,1,90,28.73a6.06,6.06,0,0,1,3-5.68A13.44,13.44,0,0,1,98,21.68Zm3.4,2.59a6.8,6.8,0,0,1-1.08.54,9,9,0,0,1-1.49.38l-1.27.24a8.11,8.11,0,0,0-2.56.76,2.52,2.52,0,0,0-1.31,2.36,2.45,2.45,0,0,0,.8,2.06,3.07,3.07,0,0,0,2,.64A5.82,5.82,0,0,0,101.72,30c1-.7,1.56-2,1.6-3.85Z" transform="translate(-1.8 -5.06)"/><path class="a" d="M136,10.7H120.74l-1.28,6.12h14l-1.07,5h-14l-1.56,7.4h15.94l-1.1,5.17H109.85L116,5.61h21.11Z" transform="translate(-1.8 -5.06)"/><path class="a" d="M133.81,34.39l9.55-10.78-4.72-10.47h6.81l2.25,6.18,4.78-6.18h6.62l-9.2,10.38,5,10.87h-6.94L145.61,28l-5,6.38Z" transform="translate(-1.8 -5.06)"/><path class="a" d="M180.86,23.48a15.87,15.87,0,0,1-4.34,8.57,10.19,10.19,0,0,1-7.14,3,5.67,5.67,0,0,1-3.95-1.27,6,6,0,0,1-1.37-2L161.7,42.77h-5.51l6.31-29.66h5.33l-.66,3.14a12.48,12.48,0,0,1,2.38-2.19,8.35,8.35,0,0,1,4.71-1.42A6.63,6.63,0,0,1,180,15.39C181.33,17.23,181.62,19.92,180.86,23.48Zm-9.24-6a5.34,5.34,0,0,0-4.76,2.87,13.18,13.18,0,0,0-1.41,3.87q-.78,3.71.86,5.21a3.77,3.77,0,0,0,2.6.88,5.05,5.05,0,0,0,3.92-1.79,10.22,10.22,0,0,0,2.23-4.79,7.65,7.65,0,0,0-.19-4.36C174.38,18.13,173.3,17.5,171.62,17.5Z" transform="translate(-1.8 -5.06)"/><path class="a" d="M199.49,12.64l-1.21,5.7c-.34,0-.64-.07-.91-.08l-.67,0a5.79,5.79,0,0,0-5,2.19,10,10,0,0,0-1.44,3.79l-2.15,10.17h-5.61L187,13.11h5.32l-.79,3.71a16,16,0,0,1,2.86-2.91,7.27,7.27,0,0,1,4.35-1.31H199Z" transform="translate(-1.8 -5.06)"/><path class="a" d="M218.6,16.68a9,9,0,0,1,.68,4.39,27.57,27.57,0,0,1-.7,4.22H204q-.57,3.21,1.05,4.5a4,4,0,0,0,2.6.8,4.87,4.87,0,0,0,3-1A6.73,6.73,0,0,0,212,28.14h5.69A9.33,9.33,0,0,1,214.9,32a11.86,11.86,0,0,1-8.32,3.11A8.81,8.81,0,0,1,200,32.48q-2.55-2.61-1.3-8.52a14.88,14.88,0,0,1,4.6-8.47,11.75,11.75,0,0,1,7.9-3,9.77,9.77,0,0,1,4.58,1A6.1,6.1,0,0,1,218.6,16.68Zm-13.68,4.94h8.66a4.06,4.06,0,0,0-.64-3.35,3.39,3.39,0,0,0-2.74-1.14A4.59,4.59,0,0,0,207,18.34,7.75,7.75,0,0,0,204.92,21.62Z" transform="translate(-1.8 -5.06)"/><path class="a" d="M226.15,27.6a3.08,3.08,0,0,0,.34,2.11q.78,1.11,3.57,1.11a6.55,6.55,0,0,0,2.72-.49,2.06,2.06,0,0,0,1.28-1.46,1.29,1.29,0,0,0-.48-1.43,27.89,27.89,0,0,0-5.45-1.68q-3.42-.9-4.61-2.24a4.12,4.12,0,0,1-.67-3.83,8.58,8.58,0,0,1,3.39-5.07,11.14,11.14,0,0,1,7-2.12,10.28,10.28,0,0,1,6.15,1.59c1.44,1.06,2,2.9,1.72,5.5h-5.57a2.92,2.92,0,0,0-.25-1.7c-.46-.75-1.42-1.13-2.89-1.13a5.19,5.19,0,0,0-2.71.56,2.11,2.11,0,0,0-1,1.33,1.15,1.15,0,0,0,.52,1.39,30.17,30.17,0,0,0,5.47,1.54A8.22,8.22,0,0,1,239.08,24a4.53,4.53,0,0,1,.81,4,8.44,8.44,0,0,1-3.46,5.17q-2.77,2-7.7,2t-7-2.12a5.76,5.76,0,0,1-1.26-5.4Z" transform="translate(-1.8 -5.06)"/><path class="a" d="M248.4,27.6a3.14,3.14,0,0,0,.33,2.11c.52.74,1.71,1.11,3.58,1.11a6.47,6.47,0,0,0,2.71-.49,2.05,2.05,0,0,0,1.29-1.46,1.28,1.28,0,0,0-.49-1.43,27.36,27.36,0,0,0-5.45-1.68,9.53,9.53,0,0,1-4.61-2.24,4.15,4.15,0,0,1-.66-3.83,8.58,8.58,0,0,1,3.39-5.07,11.11,11.11,0,0,1,7-2.12,10.24,10.24,0,0,1,6.15,1.59c1.45,1.06,2,2.9,1.72,5.5h-5.56a2.91,2.91,0,0,0-.26-1.7c-.45-.75-1.42-1.13-2.89-1.13a5.18,5.18,0,0,0-2.7.56,2.13,2.13,0,0,0-1,1.33,1.15,1.15,0,0,0,.53,1.39,29.88,29.88,0,0,0,5.47,1.54A8.29,8.29,0,0,1,261.33,24a4.52,4.52,0,0,1,.8,4,8.4,8.4,0,0,1-3.46,5.17c-1.84,1.33-4.41,2-7.69,2s-5.67-.71-7-2.12a5.76,5.76,0,0,1-1.26-5.4Z" transform="translate(-1.8 -5.06)"/></svg>