<svg xmlns="http://www.w3.org/2000/svg" viewBox="0 0 261.42 36.19"><defs><style>.a{fill:#fff;}.b{fill:#ed1c24;}</style></defs><path class="a" d="M24.43,6.41H29V16H24.43c-1.3-3.44-3.56-5.15-6.77-5.15a7.07,7.07,0,0,0-6,2.71,10.52,10.52,0,0,0-2,6.5,9.34,9.34,0,0,0,2.16,6.42,7,7,0,0,0,5.5,2.45A6.93,6.93,0,0,0,22,27.06,9.44,9.44,0,0,0,24.8,21.9l5.36,2.55q-3.06,9.47-13.42,9.46-7.32,0-11-3.94A14,14,0,0,1,2,20a14.29,14.29,0,0,1,1.94-7.52,12.48,12.48,0,0,1,5.2-4.86A15.94,15.94,0,0,1,16.29,6a12.9,12.9,0,0,1,8.14,2.54Z" transform="translate(-1.97 -5.98)"/><path class="a" d="M42.7,34a10.06,10.06,0,0,1-7.07-2.65,9.35,9.35,0,0,1-2.88-7.25,9.37,9.37,0,0,1,2.88-7.26A10.11,10.11,0,0,1,42.7,14.2a10.09,10.09,0,0,1,7.07,2.65,9.4,9.4,0,0,1,2.87,7.26,9.42,9.42,0,0,1-2.85,7.22A9.91,9.91,0,0,1,42.7,34Zm0-4.69A3.34,3.34,0,0,0,45.4,28a6.34,6.34,0,0,0,1.05-4,6.2,6.2,0,0,0-1-3.78,3.28,3.28,0,0,0-2.75-1.36q-3.74,0-3.73,5.39a6.59,6.59,0,0,0,.92,3.65A3.14,3.14,0,0,0,42.68,29.32Z" transform="translate(-1.97 -5.98)"/><path class="a" d="M56.48,33.58v-6.5H60.9a2.58,2.58,0,0,0,1.23,2.11A5,5,0,0,0,65,30a4.39,4.39,0,0,0,2.31-.52,1.52,1.52,0,0,0,.83-1.32A1.26,1.26,0,0,0,67.4,27a10.88,10.88,0,0,0-3-.79A15.64,15.64,0,0,1,57.79,24a4.78,4.78,0,0,1-2-4,5,5,0,0,1,1.92-4,7.61,7.61,0,0,1,5.07-1.61,12.15,12.15,0,0,1,4.79.95v-.66h4.32v5.49H67.54q-.58-2-4.14-2c-1.75,0-2.62.48-2.62,1.44a.88.88,0,0,0,.54.83,12.24,12.24,0,0,0,2.74.68,34.48,34.48,0,0,1,5.24,1.21,5.72,5.72,0,0,1,2.78,2,5.41,5.41,0,0,1,1,3.35,5.81,5.81,0,0,1-2,4.54A8.14,8.14,0,0,1,65.53,34q-3.39,0-4.63-1.38v.95Z" transform="translate(-1.97 -5.98)"/><path class="a" d="M75.31,19V14.67h2.4v-3l6-4.33v7.3h3.48V19H83.75v8.2a2.75,2.75,0,0,0,.28,1.5c.19.25.62.38,1.3.38a5.59,5.59,0,0,0,1.9-.39V32.9a12.06,12.06,0,0,1-4.55,1q-5,0-5-4.93V19Z" transform="translate(-1.97 -5.98)"/><path class="a" d="M111.07,29.22v4.36H102V32.09a8.68,8.68,0,0,1-5.15,1.76A7.62,7.62,0,0,1,92,32.25a5.19,5.19,0,0,1-2-4.3,5.78,5.78,0,0,1,2.15-4.55,8.25,8.25,0,0,1,5.55-1.83,12.38,12.38,0,0,1,4.35.95V21.37A3.13,3.13,0,0,0,101,19a3.67,3.67,0,0,0-2.62-.93,4.69,4.69,0,0,0-3.48,1.49l-4.86-.88q2.1-4.47,9.16-4.48a14.19,14.19,0,0,1,4.53.62,6.29,6.29,0,0,1,2.68,1.59,6,6,0,0,1,1.24,2.14,14.09,14.09,0,0,1,.36,3.78v6.89ZM102,26.59a7.32,7.32,0,0,0-3.49-1.37,3.16,3.16,0,0,0-1.89.61,2,2,0,0,0-.85,1.75,2.52,2.52,0,0,0,.69,1.78,2.25,2.25,0,0,0,1.75.74,5.91,5.91,0,0,0,3.79-2Z" transform="translate(-1.97 -5.98)"/><path class="b" d="M115.64,33.58l1-4.26h2.56l4.31-18.65H121l1-4.26h22.21l-2,8.65h-5.08l1-4.39h-7.67l-1.6,7h6.4l-1,4.26H127.8l-1.71,7.44h7.83l1-4.26h4.9l-2,8.52Z" transform="translate(-1.97 -5.98)"/><path class="b" d="M140,33.58l.95-4h2.29l5.48-5.69-3-5.15h-2.28l.95-4h6l2.39,5,4.14-5h5.62l-.92,4h-2l-4.77,5,3.44,5.86h2.28l-.92,4h-6.15L150.83,28,146,33.58Z" transform="translate(-1.97 -5.98)"/><path class="b" d="M158.65,42.17l1-4h2.67l4.48-19.43h-2.68l.92-4h8.46l-.59,2.48.08.08a8,8,0,0,1,5.73-2.79,5.79,5.79,0,0,1,4.65,2.14,8.39,8.39,0,0,1,1.78,5.57,12.88,12.88,0,0,1-2.9,8.51,8.77,8.77,0,0,1-7,3.51A6.21,6.21,0,0,1,169.71,31l-1.64,7.11h3.14l-1,4ZM176.24,19a4.5,4.5,0,0,0-3.57,2.2,8.15,8.15,0,0,0-1.61,4.93,3.67,3.67,0,0,0,.91,2.54,2.89,2.89,0,0,0,2.26,1,4.2,4.2,0,0,0,3.51-2.11,8.77,8.77,0,0,0,1.46-5.11,3.75,3.75,0,0,0-.8-2.52A2.7,2.7,0,0,0,176.24,19Z" transform="translate(-1.97 -5.98)"/><path class="b" d="M185,33.58l.91-4h2.29l2.52-10.84H188.2l.92-4h7.66l-1.27,5.49.08.08c2-2.94,3.42-4.64,4.2-5.08a4.83,4.83,0,0,1,2.43-.66,10.16,10.16,0,0,1,1.7.17l-1.15,5A8.59,8.59,0,0,0,201,19.5q-4.68,0-6.06,6L194,29.54h3l-.94,4Z" transform="translate(-1.97 -5.98)"/><path class="b" d="M216.79,27.94l4.28,1.93a9.56,9.56,0,0,1-8.51,4.28,8.74,8.74,0,0,1-6.29-2.24,7.86,7.86,0,0,1-2.35-6,11.92,11.92,0,0,1,3.15-8.28,10,10,0,0,1,7.77-3.49,8.36,8.36,0,0,1,6,2.27,8.07,8.07,0,0,1,2.4,6.14,14.36,14.36,0,0,1-.27,2.7H209.53a6.73,6.73,0,0,0-.12,1.23,4,4,0,0,0,1,2.84,3.34,3.34,0,0,0,2.55,1A4.34,4.34,0,0,0,216.79,27.94Zm-6.56-5.75h7.48a4.91,4.91,0,0,0,.08-.86,3.34,3.34,0,0,0-.91-2.45,3,3,0,0,0-2.23-.93C212.64,18,211.17,19.37,210.23,22.19Z" transform="translate(-1.97 -5.98)"/><path class="b" d="M223.9,33.58l1.53-6.52h3.73c.43,2.13,1.9,3.2,4.43,3.2s3.67-.68,3.67-2a1.6,1.6,0,0,0-.55-1.21,12.44,12.44,0,0,0-3.82-1.26c-2.18-.5-3.65-1.28-4.43-2.33a4.94,4.94,0,0,1,1-7.29,8.91,8.91,0,0,1,5.59-1.68,7.73,7.73,0,0,1,4.39,1.19l.23-1h4.09l-1.27,5.53h-3.89C238.2,18.71,237,18,235.15,18a4,4,0,0,0-2.13.51,1.53,1.53,0,0,0-.8,1.32,1.18,1.18,0,0,0,.51.95,14.06,14.06,0,0,0,3.65,1.13,7.9,7.9,0,0,1,4.37,2.21A5.16,5.16,0,0,1,242,27.51,5.41,5.41,0,0,1,239.64,32a9.81,9.81,0,0,1-6,1.77,9.94,9.94,0,0,1-5.31-1.26L228,33.58Z" transform="translate(-1.97 -5.98)"/><path class="b" d="M243.51,33.58,245,27.06h3.73c.43,2.13,1.9,3.2,4.43,3.2s3.67-.68,3.67-2a1.57,1.57,0,0,0-.56-1.21,12.22,12.22,0,0,0-3.81-1.26c-2.18-.5-3.65-1.28-4.43-2.33a4.94,4.94,0,0,1,1-7.29,8.91,8.91,0,0,1,5.59-1.68,7.76,7.76,0,0,1,4.39,1.19l.23-1h4.09l-1.27,5.53h-3.89c-.43-1.47-1.59-2.21-3.48-2.21a4,4,0,0,0-2.13.51,1.53,1.53,0,0,0-.8,1.32,1.18,1.18,0,0,0,.51.95A14.08,14.08,0,0,0,256,21.88a7.9,7.9,0,0,1,4.38,2.21,5.16,5.16,0,0,1,1.24,3.42A5.44,5.44,0,0,1,259.25,32a9.81,9.81,0,0,1-6.05,1.77,9.94,9.94,0,0,1-5.31-1.26l-.26,1.07Z" transform="translate(-1.97 -5.98)"/></svg>