<svg xmlns="http://www.w3.org/2000/svg" viewBox="0 0 646.81 300"><defs><style>.cls-1{fill:#0d0d0d;}.cls-2{fill:#d7dade;}.cls-3{fill:#fcfeff;}.cls-4{fill:#00749a;}</style></defs><g id="Layer_2" ><g id="Layer_1-2"><g id="Homepage_wordpress_product_hero"><rect class="cls-1" width="646.81" height="300"/><g id="WP_Logo"><path class="cls-2" d="M369.42,136.11H346.77v2.41c7.09,0,8.23,1.51,8.23,10.5v16.19c0,9-1.14,10.63-8.23,10.63-5.43-.76-9.1-3.67-14.17-9.24l-5.81-6.32c7.84-1.39,12-6.33,12-11.9,0-6.95-5.94-12.27-17.08-12.27H299.46v2.41c7.08,0,8.22,1.51,8.22,10.5v16.19c0,9-1.14,10.63-8.22,10.63v2.4h25.17v-2.4c-7.08,0-8.22-1.64-8.22-10.63v-4.55h2.15l14,17.58h36.82c18.1,0,25.94-9.61,25.94-21.13S387.52,136.11,369.42,136.11Zm-53,20.62V139.91h5.19c5.69,0,8.22,3.92,8.22,8.48s-2.53,8.35-8.22,8.35h-5.19Zm53.39,17.59h-.88c-4.56,0-5.19-1.14-5.19-7V139.91h6.07c13.16,0,15.56,9.61,15.56,17.08C385.36,164.71,383,174.32,369.8,174.32Z"/><path class="cls-2" d="M229,161.42l8.74-25.81c2.53-7.47,1.39-9.62-6.71-9.62v-2.53H254.8V126c-8,0-9.87,1.9-13,11.13L227.34,180.4H225.7l-12.91-39.61L199.63,180.4H198l-14.05-43.28c-3-9.23-5.06-11.13-12.4-11.13v-2.53h28.09V126c-7.46,0-9.49,1.77-6.83,9.62l8.48,25.81,12.77-38h2.41Z"/><path class="cls-2" d="M272,179.89c-13.92,0-25.3-10.25-25.3-22.78s11.39-22.64,25.3-22.64,25.31,10.24,25.31,22.64S285.92,179.89,272,179.89Zm0-41.5c-11.64,0-15.69,10.5-15.69,18.72s4.05,18.73,15.69,18.73,15.82-10.37,15.82-18.73S283.77,138.39,272,138.39Z"/><path class="cls-2" d="M426.61,175.71v2.53h-29v-2.53c8.47,0,10-2.15,10-14.8V140.67c0-12.66-1.52-14.68-10-14.68v-2.53h26.19c13,0,20.24,6.7,20.24,15.69,0,8.73-7.21,15.56-20.24,15.56h-7.22v6.2C416.61,173.56,418.13,175.71,426.61,175.71ZM423.83,128h-7.22v22h7.22c7.08,0,10.37-4.93,10.37-10.88S430.91,128,423.83,128Z"/><path class="cls-2" d="M531,166.35l-.63,2.28c-1.14,4.17-2.53,5.69-11.52,5.69h-1.77c-6.58,0-7.72-1.52-7.72-10.5V158c9.87,0,10.63.89,10.63,7.47h2.41V146.61H520c0,6.58-.76,7.47-10.63,7.47V139.91h7c9,0,10.38,1.52,11.52,5.69l.63,2.4h2l-.88-11.89H492.4v2.41c7.08,0,8.22,1.51,8.22,10.5v16.19c0,8.22-1,10.29-6.55,10.59-5.31-.81-8.95-3.71-13.94-9.2l-5.82-6.32c7.84-1.39,12-6.33,12-11.9,0-6.95-5.95-12.27-17.08-12.27H447v2.41c7.08,0,8.22,1.51,8.22,10.5v16.19c0,9-1.13,10.63-8.22,10.63v2.4h25.18v-2.4c-7.08,0-8.22-1.64-8.22-10.63v-4.55h2.15l14,17.58h52l.76-11.89Zm-67.06-9.62V139.91h5.19c5.69,0,8.23,3.92,8.23,8.48s-2.54,8.35-8.23,8.35h-5.19Z"/><path class="cls-2" d="M556.67,179.89a18.7,18.7,0,0,1-11.38-4.3,9.07,9.07,0,0,0-2,4.3h-2.4V162.43h2.53c1,8.35,6.83,13.28,14.3,13.28,4,0,7.33-2.27,7.33-6.07,0-3.29-2.91-5.82-8.09-8.22L549.71,158c-5.06-2.4-8.85-6.58-8.85-12.15,0-6.07,5.69-11.25,13.54-11.25a15.88,15.88,0,0,1,9.87,3.28,7.1,7.1,0,0,0,1.64-3.41h2.4V149.4h-2.65c-.89-6-4.18-10.88-10.88-10.88-3.55,0-6.84,2-6.84,5.18s2.66,5.06,8.73,7.85l7,3.41c6.08,2.91,8.48,7.6,8.48,11.39C572.11,174.32,565.15,179.89,556.67,179.89Z"/><path class="cls-2" d="M595.64,179.89a18.76,18.76,0,0,1-11.39-4.3,9.07,9.07,0,0,0-2,4.3h-2.4V162.43h2.53c1,8.35,6.83,13.28,14.29,13.28,4.05,0,7.34-2.27,7.34-6.07,0-3.29-2.91-5.82-8.1-8.22L588.68,158c-5.06-2.4-8.85-6.58-8.85-12.15,0-6.07,5.69-11.25,13.53-11.25a15.84,15.84,0,0,1,9.87,3.28,7.1,7.1,0,0,0,1.65-3.41h2.4V149.4h-2.66c-.88-6-4.17-10.88-10.88-10.88-3.54,0-6.83,2-6.83,5.18s2.66,5.06,8.73,7.85l7,3.41c6.07,2.91,8.48,7.6,8.48,11.39C611.08,174.32,604.12,179.89,595.64,179.89Z"/><circle class="cls-3" cx="101.01" cy="150" r="55.99"/><path class="cls-4" d="M45,150a56,56,0,0,0,31.55,50.39L49.86,127.21A55.88,55.88,0,0,0,45,150Z"/><path class="cls-4" d="M138.81,147.17c0-6.92-2.49-11.71-4.62-15.44-2.84-4.61-5.5-8.52-5.5-13.13,0-5.15,3.91-9.94,9.4-9.94.25,0,.49,0,.73,0a56,56,0,0,0-84.6,10.54c1.32,0,2.56.06,3.61.06,5.85,0,14.92-.71,14.92-.71a2.31,2.31,0,0,1,.36,4.61s-3,.36-6.41.54L87.09,184.4l12.26-36.75-8.73-23.9c-3-.18-5.87-.54-5.87-.54-3-.17-2.66-4.79.35-4.61,0,0,9.25.71,14.75.71,5.86,0,14.92-.71,14.92-.71a2.31,2.31,0,0,1,.36,4.61s-3,.36-6.4.54L129,183.94l5.59-18.67C137,157.53,138.81,152,138.81,147.17Z"/><path class="cls-4" d="M102,154.9l-16.8,48.81a56.06,56.06,0,0,0,34.41-.89,5.58,5.58,0,0,1-.4-.77Z"/><path class="cls-4" d="M150.14,123.13a43.18,43.18,0,0,1,.38,5.76c0,5.68-1.06,12.07-4.26,20.06l-17.1,49.45a56,56,0,0,0,21-75.27Z"/><path class="cls-4" d="M101,84.73A65.27,65.27,0,1,0,166.28,150,65.34,65.34,0,0,0,101,84.73Zm0,127.55A62.28,62.28,0,1,1,163.28,150,62.35,62.35,0,0,1,101,212.28Z"/></g></g></g></g></svg>